<?xml version="1.0" encoding="utf-8"?>
<!-- Generator: Adobe Illustrator 25.1.0, SVG Export Plug-In . SVG Version: 6.00 Build 0)  -->
<svg version="1.1" xmlns="http://www.w3.org/2000/svg" xmlns:xlink="http://www.w3.org/1999/xlink" x="0px" y="0px"
	 viewBox="0 0 2000 2000" style="enable-background:new 0 0 2000 2000;" xml:space="preserve">
<style type="text/css">
	.st0{fill:#FFFFFF;}
	.st1{fill:none;stroke:#000000;stroke-width:10;stroke-miterlimit:10;}
	.st2{fill:none;stroke:#000000;stroke-width:0.3;}
	.st3{fill:#FFFFFF;stroke:#000000;stroke-width:10;stroke-miterlimit:10;}
	.st4{fill:#FFFFFF;stroke:#000000;stroke-miterlimit:10;}
</style>
<g id="Layer_1">
	<g>
		<g>
			<path class="st0" d="M878.13,649.36c-70.45,209.09-140.91,418.19-211.36,627.28c-45.38-71.33-90.76-142.65-136.13-213.97
				c-50.08,71.32-100.16,142.64-150.23,213.97c-78.79-209.09-157.58-418.19-236.37-627.28h243.18l79.55,106.82h120.45l59.09-106.82
				H878.13z"/>
			<path class="st1" d="M878.13,649.36c-70.45,209.09-140.91,418.19-211.36,627.28c-45.38-71.33-90.76-142.65-136.13-213.97
				c-50.08,71.32-100.16,142.64-150.23,213.97c-78.79-209.09-157.58-418.19-236.37-627.28h243.18l79.55,106.82h120.45l59.09-106.82
				H878.13z"/>
		</g>
		<line class="st2" x1="136.81" y1="590.36" x2="136.81" y2="626.36"/>
		<line class="st2" x1="82.81" y1="644.36" x2="118.81" y2="644.36"/>
		<line class="st2" x1="82.81" y1="1288.15" x2="118.81" y2="1288.15"/>
		<line class="st2" x1="136.81" y1="1342.15" x2="136.81" y2="1306.15"/>
		<line class="st2" x1="885.09" y1="590.36" x2="885.09" y2="626.36"/>
		<line class="st2" x1="939.09" y1="644.36" x2="903.09" y2="644.36"/>
		<line class="st2" x1="939.09" y1="1288.15" x2="903.09" y2="1288.15"/>
		<line class="st2" x1="885.09" y1="1342.15" x2="885.09" y2="1306.15"/>
	</g>
</g>
<g id="Layer_2">
	<g>
		<path class="st0" d="M882.27,649.36c60.61,0,121.21,0,181.82,0c123.8,65.32,196.68,195.76,184.09,327.27
			c-17,177.57-183.24,279.26-290.16,296.88c-6.21,1.02-12.72,1.72-25.75,3.12c-112.68,12.1-201.94,6.81-261.36,0l128.07-380.07
			l3.75-11.13L882.27,649.36z"/>
		<path d="M879.36,645.3c61.38-0.58,123.16-0.96,184.74-0.94l1.24,0l1.09,0.58c42.18,22.33,80,52.94,110.34,89.84
			c30.34,36.87,53.11,80.03,65.9,126.09c12.8,46.02,15.55,95,6.8,142.09c-4.3,23.53-11.33,46.6-21.08,68.46
			c-9.79,21.84-22.1,42.5-36.38,61.65c-1.72,2.45-3.63,4.74-5.48,7.08l-5.59,7l-5.87,6.76c-1.96,2.25-3.88,4.53-5.97,6.67
			c-4.1,4.33-8.13,8.74-12.46,12.84c-2.14,2.08-4.24,4.19-6.41,6.24l-6.62,6.01c-17.7,15.99-37.02,30.11-57.26,42.66
			c-2.5,1.62-5.09,3.1-7.66,4.6c-2.58,1.49-5.13,3.02-7.73,4.47c-5.26,2.8-10.43,5.75-15.81,8.34
			c-10.61,5.43-21.55,10.19-32.63,14.61c-22.22,8.67-45.23,15.48-69.12,18.91c-5.96,0.79-11.81,1.4-17.67,2.04l-17.62,1.77
			c-5.87,0.62-11.77,1.07-17.65,1.57l-8.83,0.73l-8.84,0.59c-23.58,1.61-47.2,2.56-70.84,2.81c-47.27,0.48-94.59-1.79-141.58-7.17
			l-0.01,0l-6.51-0.86l2.34-5.71c10.5-25.57,20.31-51.37,29.82-77.26c9.52-25.9,18.72-51.9,27.68-77.98
			c17.77-52.22,35.25-104.54,52.54-156.92l12.97-39.28l6.49-19.64l6.42-19.67l12.87-39.47l6.45-19.76l6.4-19.82l25.71-79.6
			L879.36,645.3z M885.19,653.42l-27.01,76.49l-27.13,77.22l-6.81,19.38l-6.76,19.44l-13.55,38.94l-6.79,19.54L790.42,924
			l-13.45,39.13c-17.93,52.16-35.68,104.39-53.14,156.72c-8.66,26.19-17.06,52.46-25.16,78.83c-8.1,26.37-15.9,52.85-23.02,79.55
			l-4.17-6.56l0.01,0c46.56,5.33,93.46,7.58,140.34,7.1c46.86-0.47,93.78-3.83,140.23-9.42c11.32-1.7,22.71-4.01,33.84-7.21
			l2.1-0.56l2.08-0.63l4.16-1.27l4.16-1.27c1.38-0.43,2.75-0.93,4.12-1.4c2.74-0.96,5.49-1.86,8.22-2.86l8.13-3.11
			c10.78-4.31,21.45-8.94,31.79-14.24c5.24-2.52,10.29-5.4,15.42-8.13c2.54-1.41,5.03-2.91,7.55-4.37c2.51-1.46,5.04-2.91,7.48-4.48
			c19.75-12.26,38.6-26.03,55.84-41.6l6.45-5.85c2.11-1.99,4.16-4.05,6.24-6.07c4.22-3.99,8.13-8.28,12.13-12.49
			c2.03-2.08,3.89-4.3,5.8-6.48l5.71-6.57l5.42-6.8c1.8-2.27,3.66-4.5,5.32-6.88c13.86-18.59,25.78-38.6,35.25-59.72
			c9.43-21.14,16.22-43.43,20.38-66.19c8.47-45.54,5.82-92.99-6.6-137.61c-12.4-44.67-34.51-86.59-64-122.42
			c-29.48-35.86-66.25-65.62-107.28-87.34l2.33,0.58C1004.46,654.38,945.02,654.01,885.19,653.42z"/>
	</g>
	<path class="st3" d="M913.89,896.9c-38.3-0.11-76.61-0.22-114.91-0.33L764.12,1000c49.63,1.44,99.26,2.87,148.88,4.31
		c11.15,0.32,32.81,1.45,52.34-11.91c1.14-0.78,27.62-19.37,26.76-42.96C991.2,924.43,959.68,897.86,913.89,896.9z"/>
</g>
<g id="Layer_3">
	<path class="st3" d="M1614.09,649.36L1552.73,813h-332.83c-12.44-25.44-33.42-61.05-67.78-96.44
		c-31.9-32.86-64.15-54.03-88.02-67.19C1247.42,649.36,1430.76,649.36,1614.09,649.36z"/>
	<path class="st3" d="M1502.33,933.45c-16.89,45.33-33.78,90.66-50.67,135.99c-76.11,0.88-152.23,1.76-228.34,2.65
		c8.21-18.72,17.07-43.89,22.12-74.5c4.05-24.6,4.61-46.45,3.84-64.13C1333.63,933.45,1417.98,933.45,1502.33,933.45z"/>
	<path class="st3" d="M855.78,1282.54c-0.01,0.93,91.74,2.54,512.93,5.46l43.11-106.82c-89.63-0.52-179.26-1.05-268.89-1.57
		c-24.5,22.35-47.9,38.04-66.31,48.78c-44.48,25.95-82.45,36.23-90.73,38.39c-24.21,6.33-44.06,8.6-67.02,11.23
		C880.71,1282.37,855.78,1282.05,855.78,1282.54z"/>
	<path class="st4" d="M952.11,897.89"/>
</g>
</svg>
